<svg width="548" height="554" viewBox="0 0 548 554" fill="none" xmlns="http://www.w3.org/2000/svg">
<path d="M455.201 287.947C455.146 203.196 467.75 180.759 422.321 109.16C376.892 37.5609 265.527 21.7054 181.31 74.8119C97.0938 127.918 74.4504 196.215 74.4504 196.215C74.4504 196.215 43.8939 275.991 86.8352 356.321C126.105 429.804 203.439 471.553 270.514 505.901H442.027C452.452 497.019 461.316 486.417 468.243 474.545C503.173 415.123 455.267 372.698 455.201 287.947Z" fill="#F4881E"/>
<path opacity="0.7" d="M455.201 287.947C455.146 203.196 467.75 180.759 422.321 109.16C376.892 37.5609 265.527 21.7054 181.31 74.8119C97.0938 127.918 74.4504 196.215 74.4504 196.215C74.4504 196.215 43.8939 275.991 86.8352 356.321C126.105 429.804 203.439 471.553 270.514 505.901H442.027C452.452 497.019 461.316 486.417 468.243 474.545C503.173 415.123 455.267 372.698 455.201 287.947Z" fill="white"/>
<path d="M262.688 69.5602C264.101 75.3121 263.41 64.7223 266.185 51.7565C268.961 38.7908 273.705 44.0588 273.705 44.0588" stroke="#263238" stroke-linecap="round" stroke-linejoin="round"/>
<path d="M261.816 56.3155L270.519 52.6602" stroke="#263238" stroke-linecap="round" stroke-linejoin="round"/>
<path d="M277.716 48.2734C277.716 48.2734 272.479 59.304 280.344 64.0022" stroke="#263238" stroke-linecap="round" stroke-linejoin="round"/>
<path d="M285.09 45.1328C285.09 45.1328 293.667 50.0245 288.295 60.6251" stroke="#263238" stroke-linecap="round" stroke-linejoin="round"/>
<path d="M279.203 52L285.351 56.6122" stroke="#263238" stroke-linecap="round" stroke-linejoin="round"/>
<path d="M284.032 49.9805L279.215 57.8395" stroke="#263238" stroke-linecap="round" stroke-linejoin="round"/>
<path d="M96.7166 329.414C96.7166 329.414 82.128 329.199 82.0547 342.122" stroke="#263238" stroke-linecap="round" stroke-linejoin="round"/>
<path d="M95.5028 337.563C95.1991 335.66 88.8526 333.263 87.7529 338.23C86.6533 343.197 94.5393 340.219 96.9795 337.897C96.9795 337.897 92.4552 342.412 93.8376 343.681" stroke="#263238" stroke-linecap="round" stroke-linejoin="round"/>
<path d="M96.3925 345.09C96.3925 345.09 94.476 347.552 92.4023 346.38" stroke="#263238" stroke-linecap="round" stroke-linejoin="round"/>
<path d="M109.159 336.488L98.2148 347.895C98.2148 347.895 103.724 342.165 106.918 344.014C110.897 346.25 105.734 352.378 101.482 347.992" stroke="#263238" stroke-linecap="round" stroke-linejoin="round"/>
<path d="M114.685 339.562C114.685 339.562 117.585 353.206 102.609 353.689" stroke="#263238" stroke-linecap="round" stroke-linejoin="round"/>
<path d="M310.07 107.631L315.349 108.523L315.422 120.833L326.984 99.1914L345.228 102.266" stroke="#263238" stroke-linecap="round" stroke-linejoin="round"/>
<path d="M328.984 108.676L337.007 123.211" stroke="#263238" stroke-linecap="round" stroke-linejoin="round"/>
<path d="M339.065 110.371L324.707 121.133" stroke="#263238" stroke-linecap="round" stroke-linejoin="round"/>
<path d="M237.942 129.541C236.591 127.778 228.809 129.036 230.391 134.691C231.972 140.346 238.402 132.81 239.628 129.036C239.628 129.036 237.481 136.25 239.628 136.734" stroke="#263238" stroke-linecap="round" stroke-linejoin="round"/>
<path d="M243.903 123.727L242.164 130.07C242.164 130.07 243.033 126.844 244.562 126.844C246.437 126.844 245.756 130.07 243.358 129.403" stroke="#263238" stroke-linecap="round" stroke-linejoin="round"/>
<path d="M390.603 201.906L386.938 215.506L394.949 224.516" stroke="#263238" stroke-linecap="round" stroke-linejoin="round"/>
<path d="M395.191 207.43L404.366 215.31" stroke="#263238" stroke-linecap="round" stroke-linejoin="round"/>
<path d="M401.504 205.496L397.535 215.505" stroke="#263238" stroke-linecap="round" stroke-linejoin="round"/>
<path d="M407.958 214.215C407.958 214.215 408.042 217.053 406.848 217.44" stroke="#263238" stroke-linecap="round" stroke-linejoin="round"/>
<path d="M409.117 204.305L414.657 208.53" stroke="#263238" stroke-linecap="round" stroke-linejoin="round"/>
<path d="M416.713 200.832L411.246 221.044" stroke="#263238" stroke-linecap="round" stroke-linejoin="round"/>
<path d="M416.988 193.812L425.869 204.134L422.089 215.422" stroke="#263238" stroke-linecap="round" stroke-linejoin="round"/>
<path d="M172.402 460.134L185.252 420.871L200.836 438.729L172.402 460.134Z" stroke="#263238" stroke-linecap="round" stroke-linejoin="round"/>
<path d="M197.011 441.599L193.723 437.739L197.231 434.621" stroke="#263238" stroke-linecap="round" stroke-linejoin="round"/>
<path d="M96.4478 239.544C103.122 236.706 106.292 228.851 103.527 222C100.762 215.148 93.1107 211.894 86.4364 214.732C79.7621 217.57 76.5927 225.425 79.3573 232.277C82.1218 239.129 89.7735 242.382 96.4478 239.544Z" stroke="#263238" stroke-linecap="round" stroke-linejoin="round"/>
<path d="M105.953 230.278C113.969 230.278 120.468 223.607 120.468 215.378C120.468 207.148 113.969 200.477 105.953 200.477C97.9362 200.477 91.4375 207.148 91.4375 215.378C91.4375 223.607 97.9362 230.278 105.953 230.278Z" stroke="#263238" stroke-linecap="round" stroke-linejoin="round"/>
<path d="M94.016 213.969L92.2461 220.28" stroke="#263238" stroke-linecap="round" stroke-linejoin="round"/>
<path d="M96.5186 214.754L94.0156 223.849" stroke="#263238" stroke-linecap="round" stroke-linejoin="round"/>
<path d="M99.1443 216.281L96.5156 226.57" stroke="#263238" stroke-linecap="round" stroke-linejoin="round"/>
<path d="M102.066 219.301L100.191 229.063" stroke="#263238" stroke-linecap="round" stroke-linejoin="round"/>
<path d="M103.711 222.484L102.066 229.741" stroke="#263238" stroke-linecap="round" stroke-linejoin="round"/>
<path d="M78.9313 209.923C77.7898 209.569 74.6584 212.622 77.0881 214.675C79.5178 216.729 80.1357 211.257 79.5387 209.16C79.5387 209.16 80.764 213.106 81.8742 212.633" stroke="#263238" stroke-linecap="round" stroke-linejoin="round"/>
<path d="M95.8125 192.691L100.002 200.518C100.002 200.518 97.9071 196.605 99.3837 195.143C101.185 193.336 103.573 197.153 100.557 198.755" stroke="#263238" stroke-linecap="round" stroke-linejoin="round"/>
<path d="M172.363 191.758L178.28 197.51" stroke="#263238" stroke-linecap="round" stroke-linejoin="round"/>
<path d="M178.278 190.262L173.324 197.852" stroke="#263238" stroke-linecap="round" stroke-linejoin="round"/>
<path d="M184.102 192.444L190.019 190.176" stroke="#263238" stroke-linecap="round" stroke-linejoin="round"/>
<path d="M192.855 183.844L196.458 187.112" stroke="#263238" stroke-linecap="round" stroke-linejoin="round"/>
<path d="M199.212 179.91L194.656 195.972" stroke="#263238" stroke-linecap="round" stroke-linejoin="round"/>
<path d="M457.849 176.684L457.598 164.406H466.636C466.636 164.406 461.63 167.245 463.934 173.846C466.238 180.447 469.945 176.684 469.945 176.684" stroke="#263238" stroke-linecap="round" stroke-linejoin="round"/>
<path d="M442.539 386.123L452.823 378.855L466.438 379.834L467.286 397.552L457.295 404.895L444.958 403.97L442.539 386.123Z" stroke="#263238" stroke-linecap="round" stroke-linejoin="round"/>
<path d="M444.957 403.971L454.906 396.617L467.285 397.553" stroke="#263238" stroke-linecap="round" stroke-linejoin="round"/>
<path d="M454.919 396.616L452.824 378.855" stroke="#263238" stroke-linecap="round" stroke-linejoin="round"/>
<path d="M442.539 386.125L456.122 387.738L466.438 379.836" stroke="#263238" stroke-linecap="round" stroke-linejoin="round"/>
<path d="M456.121 387.738L457.294 404.897" stroke="#263238" stroke-linecap="round" stroke-linejoin="round"/>
<path d="M444.412 253.051L443.973 276.671L464.133 267.274L444.412 253.051Z" stroke="#263238" stroke-linecap="round" stroke-linejoin="round"/>
<path d="M444.414 253.051L454.018 271.854" stroke="#263238" stroke-linecap="round" stroke-linejoin="round"/>
<path d="M452.477 268.829L454.812 267.668L456.383 270.883" stroke="#263238" stroke-linecap="round" stroke-linejoin="round"/>
<path d="M268.637 250.812L276.973 259.983" stroke="#263238" stroke-linecap="round" stroke-linejoin="round"/>
<path d="M277.038 249.574L270.031 259.422" stroke="#263238" stroke-linecap="round" stroke-linejoin="round"/>
<path d="M280.451 244.772C280.851 244.582 281.308 244.562 281.722 244.717C282.137 244.872 282.474 245.19 282.661 245.6C282.726 245.747 282.772 245.902 282.797 246.062C283.205 248.126 279.906 250.814 279.906 250.814H284.609" stroke="#263238" stroke-linecap="round" stroke-linejoin="round"/>
<path d="M138.848 113.401C139.247 108.192 140.918 103.17 143.708 98.7995C146.498 94.4287 150.315 90.8502 154.808 88.3945" stroke="#263238" stroke-linecap="round" stroke-linejoin="round"/>
<path d="M162.004 146.196C154.366 144.315 147.738 139.462 143.52 132.66" stroke="#263238" stroke-linecap="round" stroke-linejoin="round"/>
<path d="M199.34 118.359C198.694 126.593 194.891 134.227 188.767 139.584C182.642 144.942 174.697 147.586 166.676 146.936" stroke="#263238" stroke-linecap="round" stroke-linejoin="round"/>
<path d="M171.504 84.8359C178.399 85.4034 184.9 88.3705 189.929 93.2462C194.959 98.122 198.216 104.614 199.163 111.649" stroke="#263238" stroke-linecap="round" stroke-linejoin="round"/>
<path d="M182.187 139.859C177.953 142.298 173.154 143.509 168.302 143.363C163.45 143.218 158.727 141.721 154.64 139.034C150.552 136.346 147.253 132.568 145.096 128.104C142.938 123.641 142.003 118.659 142.39 113.691" stroke="#263238" stroke-linecap="round" stroke-linejoin="round"/>
<path d="M144.105 105.996C145.515 102.235 147.712 98.8384 150.542 96.046C153.372 93.2537 156.765 91.1342 160.481 89.8374C164.198 88.5407 168.146 88.0985 172.048 88.5421C175.949 88.9858 179.707 90.3044 183.057 92.4047C186.407 94.505 189.266 97.3355 191.432 100.696C193.598 104.056 195.018 107.865 195.591 111.851C196.164 115.837 195.877 119.904 194.749 123.763C193.621 127.623 191.681 131.181 189.065 134.185" stroke="#263238" stroke-linecap="round" stroke-linejoin="round"/>
<path d="M166.465 96.1055L169.094 115.887L183.902 111.157" stroke="#263238" stroke-linecap="round" stroke-linejoin="round"/>
<path d="M399.996 154.334C395.739 154.376 391.57 153.089 388.042 150.645C384.513 148.2 381.791 144.712 380.236 140.644C378.681 136.575 378.368 132.118 379.336 127.862C380.304 123.606 382.51 119.753 385.659 116.812" stroke="#263238" stroke-linecap="round" stroke-linejoin="round"/>
<path d="M419.676 139.742C418.655 142.832 416.963 145.643 414.728 147.962C412.492 150.281 409.772 152.047 406.773 153.127" stroke="#263238" stroke-linecap="round" stroke-linejoin="round"/>
<path d="M392.824 112.426C398.079 110.528 403.854 110.85 408.878 113.321C413.902 115.793 417.763 120.212 419.614 125.607" stroke="#263238" stroke-linecap="round" stroke-linejoin="round"/>
<path d="M410.169 116.992C412.34 118.498 414.175 120.46 415.554 122.747C416.932 125.034 417.823 127.596 418.167 130.262C418.51 132.928 418.3 135.639 417.548 138.216C416.797 140.793 415.522 143.177 413.807 145.21C412.093 147.244 409.978 148.882 407.602 150.016C405.226 151.149 402.643 151.753 400.023 151.786C397.403 151.82 394.806 151.284 392.403 150.212C390 149.14 387.846 147.557 386.082 145.568" stroke="#263238" stroke-linecap="round" stroke-linejoin="round"/>
<path d="M382.299 139.077C381.184 135.821 380.953 132.316 381.63 128.935C382.307 125.555 383.867 122.427 386.142 119.887C388.418 117.347 391.323 115.489 394.548 114.514C397.773 113.539 401.195 113.482 404.449 114.35" stroke="#263238" stroke-linecap="round" stroke-linejoin="round"/>
<path d="M392.719 121.016L399.798 132.767L393.347 141.357" stroke="#263238" stroke-linecap="round" stroke-linejoin="round"/>
<path d="M251.391 454.137C251.381 451.317 252.043 448.537 253.321 446.041C254.599 443.544 256.453 441.407 258.722 439.816" stroke="#263238" stroke-linecap="round" stroke-linejoin="round"/>
<path d="M280.407 466.046C278.41 468.203 275.904 469.794 273.132 470.665C270.361 471.537 267.417 471.66 264.585 471.022C261.754 470.384 259.131 469.007 256.969 467.024C254.808 465.042 253.181 462.52 252.246 459.703" stroke="#263238" stroke-linecap="round" stroke-linejoin="round"/>
<path d="M268.195 436.836C272.664 436.836 276.95 438.658 280.111 441.903C283.271 445.147 285.046 449.547 285.046 454.134" stroke="#263238" stroke-linecap="round" stroke-linejoin="round"/>
<path d="M268.197 469.392C264.255 469.392 260.476 467.785 257.689 464.924C254.902 462.063 253.336 458.183 253.336 454.137" stroke="#263238" stroke-linecap="round" stroke-linejoin="round"/>
<path d="M256.625 444.556C258.003 442.809 259.739 441.395 261.71 440.417C263.682 439.438 265.839 438.919 268.029 438.895C270.218 438.872 272.386 439.345 274.376 440.281C276.367 441.217 278.132 442.593 279.545 444.31C280.958 446.027 281.984 448.043 282.55 450.215C283.116 452.386 283.208 454.659 282.819 456.871C282.431 459.083 281.571 461.18 280.301 463.011C279.032 464.843 277.384 466.364 275.476 467.466" stroke="#263238" stroke-linecap="round" stroke-linejoin="round"/>
<path d="M265.896 464.5L268.2 454.136L264.984 445.664" stroke="#263238" stroke-linecap="round" stroke-linejoin="round"/>
<path d="M72 506.301H495.709" stroke="#263238" stroke-linecap="round" stroke-linejoin="round"/>
<path d="M277.278 272.657L270.056 411.678L178.551 406.825L179.318 392.088L185.773 267.793L243.39 270.851L277.278 272.657Z" fill="white"/>
<mask id="mask0_1595_1270" style="mask-type:luminance" maskUnits="userSpaceOnUse" x="178" y="267" width="100" height="145">
<path d="M277.278 272.657L270.056 411.678L178.551 406.825L179.318 392.088L185.773 267.793L243.39 270.851L277.278 272.657Z" fill="white"/>
</mask>
<g mask="url(#mask0_1595_1270)">
<path opacity="0.2" d="M248.715 354.106L228.099 355.824L234.116 382.072L179.316 392.088L185.772 267.793L243.389 270.851L248.715 354.106Z" fill="black" fill-opacity="0.7"/>
</g>
<path d="M277.278 272.657L270.056 411.678L178.551 406.825L179.318 392.088L185.773 267.793L243.39 270.851L277.278 272.657Z" stroke="#263238" stroke-linecap="round" stroke-linejoin="round"/>
<path d="M192.23 277.301L216.047 278.564" stroke="#263238" stroke-width="2" stroke-linecap="round" stroke-linejoin="round"/>
<path d="M191.988 281.922L208.187 282.786" stroke="#263238" stroke-width="2" stroke-linecap="round" stroke-linejoin="round"/>
<path d="M197.227 293.145L265.727 296.779" stroke="#263238" stroke-width="2" stroke-linecap="round" stroke-linejoin="round"/>
<path d="M196.984 297.766L265.484 301.4" stroke="#263238" stroke-width="2" stroke-linecap="round" stroke-linejoin="round"/>
<path d="M196.711 303.16L255.128 306.251" stroke="#263238" stroke-width="2" stroke-linecap="round" stroke-linejoin="round"/>
<path d="M196.734 308.083L196.441 313.715L202.012 314.011L202.305 308.379L196.734 308.083Z" stroke="#263238" stroke-linecap="round" stroke-linejoin="round"/>
<path d="M206.832 308.622L206.539 314.254L212.11 314.55L212.403 308.918L206.832 308.622Z" stroke="#263238" stroke-linecap="round" stroke-linejoin="round"/>
<path d="M216.918 309.165L216.625 314.797L222.196 315.093L222.489 309.461L216.918 309.165Z" stroke="#263238" stroke-linecap="round" stroke-linejoin="round"/>
<path d="M227.016 309.704L226.723 315.336L232.294 315.632L232.587 310L227.016 309.704Z" stroke="#263238" stroke-linecap="round" stroke-linejoin="round"/>
<path d="M193.579 292.944C193.572 293.128 193.529 293.308 193.453 293.474C193.377 293.641 193.269 293.791 193.136 293.916C193.002 294.04 192.846 294.137 192.676 294.2C192.505 294.264 192.324 294.292 192.143 294.285C191.774 294.266 191.427 294.099 191.179 293.822C190.932 293.544 190.803 293.179 190.822 292.806C190.841 292.433 191.006 292.082 191.28 291.832C191.555 291.581 191.916 291.451 192.285 291.471C192.467 291.479 192.645 291.524 192.809 291.602C192.973 291.68 193.121 291.79 193.243 291.926C193.365 292.062 193.46 292.221 193.521 292.394C193.582 292.566 193.609 292.75 193.601 292.933L193.579 292.944Z" fill="#263238"/>
<path d="M195.824 320.102L264.324 323.736" stroke="#263238" stroke-width="2" stroke-linecap="round" stroke-linejoin="round"/>
<path d="M195.582 324.723L264.082 328.357" stroke="#263238" stroke-width="2" stroke-linecap="round" stroke-linejoin="round"/>
<path d="M195.309 330.117L253.725 333.209" stroke="#263238" stroke-width="2" stroke-linecap="round" stroke-linejoin="round"/>
<path d="M195.32 335.059L195.027 340.691L200.598 340.988L200.891 335.356L195.32 335.059Z" stroke="#263238" stroke-linecap="round" stroke-linejoin="round"/>
<path d="M205.43 335.587L205.137 341.219L210.708 341.515L211.001 335.883L205.43 335.587Z" stroke="#263238" stroke-linecap="round" stroke-linejoin="round"/>
<path d="M215.516 336.118L215.223 341.75L220.794 342.046L221.087 336.414L215.516 336.118Z" stroke="#263238" stroke-linecap="round" stroke-linejoin="round"/>
<path d="M225.602 336.657L225.309 342.289L230.88 342.585L231.172 336.953L225.602 336.657Z" stroke="#263238" stroke-linecap="round" stroke-linejoin="round"/>
<path d="M192.184 319.904C192.176 320.089 192.131 320.271 192.053 320.438C191.975 320.606 191.866 320.756 191.73 320.88C191.595 321.005 191.436 321.101 191.264 321.164C191.092 321.226 190.909 321.254 190.726 321.245C190.449 321.232 190.182 321.135 189.959 320.969C189.736 320.802 189.567 320.572 189.473 320.308C189.38 320.045 189.365 319.759 189.432 319.486C189.499 319.214 189.644 318.968 189.849 318.78C190.054 318.591 190.31 318.468 190.584 318.426C190.858 318.384 191.139 318.425 191.39 318.545C191.641 318.664 191.851 318.856 191.995 319.096C192.138 319.336 192.208 319.613 192.195 319.893L192.184 319.904Z" fill="#263238"/>
<path d="M194.434 347.059L262.923 350.693" stroke="#263238" stroke-width="2" stroke-linecap="round" stroke-linejoin="round"/>
<path d="M194.191 351.68L262.68 355.314" stroke="#263238" stroke-width="2" stroke-linecap="round" stroke-linejoin="round"/>
<path d="M193.906 357.066L252.323 360.169" stroke="#263238" stroke-width="2" stroke-linecap="round" stroke-linejoin="round"/>
<path d="M193.93 362.001L193.637 367.633L199.208 367.929L199.501 362.297L193.93 362.001Z" stroke="#263238" stroke-linecap="round" stroke-linejoin="round"/>
<path d="M205.209 362.505L204.93 368.148L210.512 368.43L210.791 362.787L205.209 362.505Z" stroke="#263238" stroke-width="1.00125" stroke-linecap="round" stroke-linejoin="round"/>
<path d="M214.113 363.083L213.82 368.715L219.391 369.011L219.684 363.379L214.113 363.083Z" stroke="#263238" stroke-linecap="round" stroke-linejoin="round"/>
<path d="M224.223 363.61L223.93 369.242L229.501 369.538L229.794 363.906L224.223 363.61Z" stroke="#263238" stroke-linecap="round" stroke-linejoin="round"/>
<path d="M190.782 346.859C190.774 347.044 190.73 347.225 190.652 347.393C190.574 347.56 190.464 347.711 190.329 347.835C190.193 347.96 190.035 348.056 189.863 348.119C189.69 348.181 189.508 348.209 189.325 348.2C188.953 348.2 188.596 348.05 188.333 347.784C188.07 347.518 187.922 347.158 187.922 346.782C187.922 346.405 188.07 346.045 188.333 345.779C188.596 345.513 188.953 345.363 189.325 345.363H189.522C189.705 345.372 189.884 345.417 190.05 345.495C190.216 345.574 190.364 345.685 190.487 345.822C190.611 345.959 190.706 346.119 190.768 346.293C190.83 346.467 190.857 346.652 190.848 346.837L190.782 346.859Z" fill="#263238"/>
<path d="M192.984 374.781L261.473 378.427" stroke="#263238" stroke-width="2" stroke-linecap="round" stroke-linejoin="round"/>
<path d="M192.746 379.402L261.246 383.048" stroke="#263238" stroke-width="2" stroke-linecap="round" stroke-linejoin="round"/>
<path d="M192.469 384.797L250.886 387.899" stroke="#263238" stroke-width="2" stroke-linecap="round" stroke-linejoin="round"/>
<path d="M192.477 389.735L192.184 395.367L197.755 395.663L198.047 390.031L192.477 389.735Z" stroke="#263238" stroke-linecap="round" stroke-linejoin="round"/>
<path d="M202.586 390.267L202.293 395.898L207.864 396.195L208.157 390.563L202.586 390.267Z" stroke="#263238" stroke-linecap="round" stroke-linejoin="round"/>
<path d="M212.695 390.794L212.402 396.426L217.973 396.722L218.266 391.09L212.695 390.794Z" stroke="#263238" stroke-linecap="round" stroke-linejoin="round"/>
<path d="M222.781 391.349L222.488 396.98L228.059 397.277L228.352 391.645L222.781 391.349Z" stroke="#263238" stroke-linecap="round" stroke-linejoin="round"/>
<path d="M189.336 374.592C189.321 374.87 189.224 375.137 189.059 375.359C188.893 375.581 188.666 375.749 188.407 375.841C188.147 375.933 187.866 375.945 187.6 375.875C187.333 375.806 187.093 375.659 186.91 375.451C186.726 375.244 186.607 374.987 186.569 374.711C186.53 374.436 186.573 374.155 186.691 373.904C186.81 373.654 187 373.444 187.237 373.302C187.473 373.16 187.746 373.093 188.021 373.107C188.204 373.117 188.383 373.164 188.548 373.244C188.713 373.324 188.861 373.436 188.984 373.574C189.106 373.712 189.2 373.873 189.26 374.048C189.321 374.222 189.347 374.407 189.336 374.592Z" fill="#263238"/>
<path d="M198.629 310.429L199.352 311.692L202.322 308.379" stroke="#263238" stroke-width="2" stroke-linecap="round" stroke-linejoin="round"/>
<path d="M217.438 338.116L218.161 339.379L221.131 336.066" stroke="#263238" stroke-width="2" stroke-linecap="round" stroke-linejoin="round"/>
<path d="M226.875 366.573L227.598 367.836L230.569 364.512" stroke="#263238" stroke-width="2" stroke-linecap="round" stroke-linejoin="round"/>
<path d="M204.516 391.967L205.239 393.219L208.209 389.906" stroke="#263238" stroke-width="2" stroke-linecap="round" stroke-linejoin="round"/>
<path d="M216.473 372.334L128.19 397.142L91.3203 262.996L127.872 252.725L179.603 238.199L213.053 359.902L216.473 372.334Z" fill="white"/>
<mask id="mask1_1595_1270" style="mask-type:luminance" maskUnits="userSpaceOnUse" x="91" y="238" width="126" height="160">
<path d="M216.473 372.334L128.19 397.142L91.3203 262.996L127.872 252.725L179.603 238.199L213.053 359.902L216.473 372.334Z" fill="white"/>
</mask>
<g mask="url(#mask1_1595_1270)">
<path opacity="0.2" d="M213.052 359.902L144.793 364.367L127.871 252.725L179.602 238.199L213.052 359.902Z" fill="black" fill-opacity="0.7"/>
</g>
<path d="M216.473 372.334L128.19 397.142L91.3203 262.996L127.872 252.725L179.603 238.199L213.053 359.902L216.473 372.334Z" stroke="#263238" stroke-linecap="round" stroke-linejoin="round"/>
<path d="M100.438 269.933L123.41 263.484" stroke="#263238" stroke-width="2" stroke-linecap="round" stroke-linejoin="round"/>
<path d="M101.656 274.395L117.285 270.008" stroke="#263238" stroke-width="2" stroke-linecap="round" stroke-linejoin="round"/>
<path d="M110.148 283.348L176.237 264.789" stroke="#263238" stroke-width="2" stroke-linecap="round" stroke-linejoin="round"/>
<path d="M111.379 287.805L177.468 269.246" stroke="#263238" stroke-width="2" stroke-linecap="round" stroke-linejoin="round"/>
<path d="M112.801 293.013L169.168 277.18" stroke="#263238" stroke-width="2" stroke-linecap="round" stroke-linejoin="round"/>
<path d="M119.766 296.162L114.391 297.672L115.884 303.106L121.259 301.596L119.766 296.162Z" stroke="#263238" stroke-linecap="round" stroke-linejoin="round"/>
<path d="M129.512 293.416L124.137 294.926L125.63 300.36L131.005 298.85L129.512 293.416Z" stroke="#263238" stroke-linecap="round" stroke-linejoin="round"/>
<path d="M139.258 290.678L133.883 292.188L135.376 297.621L140.751 296.111L139.258 290.678Z" stroke="#263238" stroke-linecap="round" stroke-linejoin="round"/>
<path d="M148.988 287.943L143.613 289.453L145.107 294.887L150.482 293.377L148.988 287.943Z" stroke="#263238" stroke-linecap="round" stroke-linejoin="round"/>
<path d="M106.63 284.337C106.729 284.697 106.683 285.081 106.501 285.407C106.319 285.732 106.017 285.971 105.661 286.071C105.304 286.171 104.924 286.123 104.602 285.939C104.28 285.756 104.044 285.45 103.945 285.09C103.846 284.73 103.893 284.345 104.075 284.02C104.257 283.695 104.559 283.456 104.915 283.356C105.271 283.256 105.652 283.303 105.974 283.487C106.295 283.671 106.532 283.977 106.63 284.337Z" fill="#263238"/>
<path d="M117.297 309.356L183.386 290.797" stroke="#263238" stroke-width="2" stroke-linecap="round" stroke-linejoin="round"/>
<path d="M118.523 313.82L184.612 295.25" stroke="#263238" stroke-width="2" stroke-linecap="round" stroke-linejoin="round"/>
<path d="M119.957 319.017L176.313 303.184" stroke="#263238" stroke-width="2" stroke-linecap="round" stroke-linejoin="round"/>
<path d="M126.918 322.162L121.543 323.672L123.037 329.106L128.412 327.596L126.918 322.162Z" stroke="#263238" stroke-linecap="round" stroke-linejoin="round"/>
<path d="M136.656 319.428L131.281 320.938L132.775 326.371L138.15 324.861L136.656 319.428Z" stroke="#263238" stroke-linecap="round" stroke-linejoin="round"/>
<path d="M146.406 316.693L141.031 318.203L142.525 323.637L147.9 322.127L146.406 316.693Z" stroke="#263238" stroke-linecap="round" stroke-linejoin="round"/>
<path d="M156.16 313.939L150.785 315.449L152.279 320.883L157.654 319.373L156.16 313.939Z" stroke="#263238" stroke-linecap="round" stroke-linejoin="round"/>
<path d="M113.79 310.352C113.864 310.622 113.857 310.908 113.771 311.175C113.684 311.441 113.521 311.675 113.303 311.848C113.085 312.021 112.82 312.124 112.544 312.145C112.268 312.167 111.991 312.105 111.75 311.967C111.508 311.829 111.312 311.623 111.187 311.373C111.061 311.123 111.012 310.841 111.045 310.562C111.078 310.284 111.192 310.022 111.372 309.809C111.553 309.596 111.791 309.442 112.058 309.366C112.234 309.315 112.419 309.3 112.601 309.322C112.783 309.344 112.959 309.402 113.119 309.492C113.279 309.583 113.419 309.704 113.533 309.85C113.646 309.996 113.73 310.163 113.779 310.341L113.79 310.352Z" fill="#263238"/>
<path d="M124.453 335.371L190.531 316.801" stroke="#263238" stroke-width="2" stroke-linecap="round" stroke-linejoin="round"/>
<path d="M125.68 339.825L191.758 321.266" stroke="#263238" stroke-width="2" stroke-linecap="round" stroke-linejoin="round"/>
<path d="M127.105 345.033L183.473 329.199" stroke="#263238" stroke-width="2" stroke-linecap="round" stroke-linejoin="round"/>
<path d="M134.062 348.166L128.688 349.676L130.181 355.11L135.556 353.6L134.062 348.166Z" stroke="#263238" stroke-linecap="round" stroke-linejoin="round"/>
<path d="M143.82 345.428L138.445 346.938L139.939 352.371L145.314 350.861L143.82 345.428Z" stroke="#263238" stroke-linecap="round" stroke-linejoin="round"/>
<path d="M153.547 342.693L148.172 344.203L149.666 349.637L155.04 348.127L153.547 342.693Z" stroke="#263238" stroke-linecap="round" stroke-linejoin="round"/>
<path d="M163.293 339.955L157.918 341.465L159.412 346.899L164.787 345.389L163.293 339.955Z" stroke="#263238" stroke-linecap="round" stroke-linejoin="round"/>
<path d="M120.934 336.356C121.009 336.626 121.002 336.912 120.915 337.179C120.828 337.445 120.666 337.679 120.447 337.852C120.229 338.025 119.965 338.128 119.689 338.149C119.412 338.171 119.136 338.108 118.894 337.971C118.652 337.833 118.457 337.626 118.331 337.376C118.206 337.126 118.157 336.845 118.19 336.566C118.223 336.288 118.337 336.026 118.517 335.813C118.697 335.6 118.936 335.446 119.203 335.37C119.379 335.319 119.563 335.304 119.746 335.326C119.928 335.348 120.104 335.406 120.263 335.496C120.423 335.587 120.564 335.708 120.677 335.854C120.79 336 120.874 336.166 120.923 336.345L120.934 336.356Z" fill="#263238"/>
<path d="M131.805 362.118L197.883 343.559" stroke="#263238" stroke-width="2" stroke-linecap="round" stroke-linejoin="round"/>
<path d="M133.023 366.582L199.112 348.012" stroke="#263238" stroke-width="2" stroke-linecap="round" stroke-linejoin="round"/>
<path d="M134.457 371.779L190.824 355.945" stroke="#263238" stroke-width="2" stroke-linecap="round" stroke-linejoin="round"/>
<path d="M141.418 374.928L136.043 376.438L137.537 381.871L142.912 380.361L141.418 374.928Z" stroke="#263238" stroke-linecap="round" stroke-linejoin="round"/>
<path d="M151.164 372.189L145.789 373.699L147.283 379.133L152.658 377.623L151.164 372.189Z" stroke="#263238" stroke-linecap="round" stroke-linejoin="round"/>
<path d="M160.91 369.451L155.535 370.961L157.029 376.395L162.404 374.885L160.91 369.451Z" stroke="#263238" stroke-linecap="round" stroke-linejoin="round"/>
<path d="M170.648 366.717L165.273 368.227L166.767 373.66L172.142 372.15L170.648 366.717Z" stroke="#263238" stroke-linecap="round" stroke-linejoin="round"/>
<path d="M128.289 363.105C128.392 363.466 128.349 363.854 128.169 364.184C127.989 364.513 127.687 364.757 127.33 364.861C126.972 364.965 126.588 364.922 126.263 364.74C125.937 364.558 125.696 364.253 125.593 363.892C125.491 363.529 125.535 363.14 125.716 362.81C125.897 362.48 126.199 362.235 126.557 362.13C126.912 362.03 127.291 362.076 127.613 362.256C127.934 362.436 128.173 362.737 128.278 363.094L128.289 363.105Z" fill="#263238"/>
<path d="M126.086 296.702L127.171 297.666L128.946 293.566" stroke="#263238" stroke-width="2" stroke-linecap="round" stroke-linejoin="round"/>
<path d="M123.445 325.718L124.53 326.682L126.295 322.582" stroke="#263238" stroke-width="2" stroke-linecap="round" stroke-linejoin="round"/>
<path d="M130.59 351.46L131.675 352.424L133.439 348.324" stroke="#263238" stroke-width="2" stroke-linecap="round" stroke-linejoin="round"/>
<path d="M157.41 372.542L158.495 373.506L160.271 369.406" stroke="#263238" stroke-width="2" stroke-linecap="round" stroke-linejoin="round"/>
<path d="M225.092 207.212L133.887 216.074L147.062 354.656L238.267 345.794L225.092 207.212Z" fill="white" stroke="#263238" stroke-linecap="round" stroke-linejoin="round"/>
<path d="M141.66 224.527L165.4 222.223" stroke="#263238" stroke-width="2" stroke-linecap="round" stroke-linejoin="round"/>
<path d="M142.098 229.136L158.242 227.562" stroke="#263238" stroke-width="2" stroke-linecap="round" stroke-linejoin="round"/>
<path d="M148.914 239.449L217.184 232.812" stroke="#263238" stroke-width="2" stroke-linecap="round" stroke-linejoin="round"/>
<path d="M149.355 244.048L217.625 237.422" stroke="#263238" stroke-width="2" stroke-linecap="round" stroke-linejoin="round"/>
<path d="M149.867 249.424L208.098 243.773" stroke="#263238" stroke-width="2" stroke-linecap="round" stroke-linejoin="round"/>
<path d="M156.19 253.746L150.637 254.285L151.17 259.899L156.723 259.359L156.19 253.746Z" stroke="#263238" stroke-linecap="round" stroke-linejoin="round"/>
<path d="M166.256 252.765L160.703 253.305L161.237 258.919L166.79 258.379L166.256 252.765Z" stroke="#263238" stroke-linecap="round" stroke-linejoin="round"/>
<path d="M176.319 251.796L170.766 252.336L171.299 257.95L176.852 257.41L176.319 251.796Z" stroke="#263238" stroke-linecap="round" stroke-linejoin="round"/>
<path d="M186.385 250.804L180.832 251.344L181.366 256.958L186.919 256.418L186.385 250.804Z" stroke="#263238" stroke-linecap="round" stroke-linejoin="round"/>
<path d="M145.287 239.805C145.314 240.084 145.259 240.365 145.128 240.612C144.997 240.859 144.796 241.061 144.551 241.193C144.307 241.325 144.029 241.381 143.753 241.353C143.477 241.325 143.215 241.216 143.001 241.038C142.786 240.86 142.629 240.621 142.549 240.353C142.468 240.085 142.468 239.798 142.549 239.53C142.629 239.262 142.787 239.024 143.001 238.846C143.215 238.668 143.477 238.558 143.753 238.53C143.935 238.512 144.119 238.53 144.294 238.584C144.469 238.637 144.632 238.725 144.774 238.843C144.915 238.96 145.033 239.104 145.119 239.267C145.205 239.431 145.259 239.609 145.277 239.794L145.287 239.805Z" fill="#263238"/>
<path d="M151.469 266.321L219.739 259.695" stroke="#263238" stroke-width="2" stroke-linecap="round" stroke-linejoin="round"/>
<path d="M151.906 270.93L220.176 264.293" stroke="#263238" stroke-width="2" stroke-linecap="round" stroke-linejoin="round"/>
<path d="M152.422 276.303L210.652 270.641" stroke="#263238" stroke-width="2" stroke-linecap="round" stroke-linejoin="round"/>
<path d="M158.741 280.609L153.188 281.148L153.721 286.762L159.274 286.223L158.741 280.609Z" stroke="#263238" stroke-linecap="round" stroke-linejoin="round"/>
<path d="M168.807 279.64L163.254 280.18L163.788 285.794L169.341 285.254L168.807 279.64Z" stroke="#263238" stroke-linecap="round" stroke-linejoin="round"/>
<path d="M178.873 278.66L173.32 279.199L173.854 284.813L179.407 284.274L178.873 278.66Z" stroke="#263238" stroke-linecap="round" stroke-linejoin="round"/>
<path d="M188.94 277.703L183.387 278.242L183.92 283.856L189.473 283.316L188.94 277.703Z" stroke="#263238" stroke-linecap="round" stroke-linejoin="round"/>
<path d="M147.842 266.676C147.869 266.955 147.813 267.236 147.682 267.483C147.551 267.73 147.351 267.932 147.106 268.064C146.861 268.196 146.583 268.252 146.307 268.224C146.031 268.196 145.77 268.087 145.555 267.909C145.341 267.731 145.184 267.492 145.103 267.224C145.023 266.956 145.023 266.669 145.103 266.401C145.184 266.133 145.341 265.895 145.556 265.717C145.77 265.539 146.032 265.429 146.308 265.401C146.491 265.383 146.677 265.401 146.853 265.456C147.03 265.51 147.194 265.599 147.336 265.717C147.479 265.835 147.597 265.981 147.684 266.145C147.77 266.31 147.824 266.49 147.842 266.676Z" fill="#263238"/>
<path d="M154.023 293.188L222.293 286.562" stroke="#263238" stroke-width="2" stroke-linecap="round" stroke-linejoin="round"/>
<path d="M154.461 297.797L222.731 291.16" stroke="#263238" stroke-width="2" stroke-linecap="round" stroke-linejoin="round"/>
<path d="M154.977 303.174L213.207 297.512" stroke="#263238" stroke-width="2" stroke-linecap="round" stroke-linejoin="round"/>
<path d="M161.295 307.484L155.742 308.023L156.276 313.637L161.829 313.098L161.295 307.484Z" stroke="#263238" stroke-linecap="round" stroke-linejoin="round"/>
<path d="M171.362 306.503L165.809 307.043L166.342 312.657L171.895 312.117L171.362 306.503Z" stroke="#263238" stroke-linecap="round" stroke-linejoin="round"/>
<path d="M181.424 305.535L175.871 306.074L176.405 311.688L181.958 311.149L181.424 305.535Z" stroke="#263238" stroke-linecap="round" stroke-linejoin="round"/>
<path d="M191.491 304.554L185.938 305.094L186.471 310.708L192.024 310.168L191.491 304.554Z" stroke="#263238" stroke-linecap="round" stroke-linejoin="round"/>
<path d="M150.384 293.542C150.409 293.819 150.352 294.097 150.22 294.342C150.088 294.586 149.888 294.786 149.644 294.915C149.4 295.044 149.124 295.098 148.851 295.068C148.577 295.039 148.318 294.928 148.106 294.75C147.895 294.572 147.74 294.334 147.662 294.067C147.584 293.8 147.587 293.516 147.668 293.25C147.75 292.985 147.908 292.75 148.122 292.575C148.336 292.4 148.597 292.293 148.871 292.268C149.053 292.251 149.237 292.27 149.411 292.325C149.586 292.38 149.748 292.47 149.888 292.588C150.029 292.706 150.145 292.851 150.23 293.015C150.315 293.179 150.367 293.358 150.384 293.542Z" fill="#263238"/>
<path d="M156.652 320.832L224.922 314.195" stroke="#263238" stroke-width="2" stroke-linecap="round" stroke-linejoin="round"/>
<path d="M157.09 325.431L225.36 318.805" stroke="#263238" stroke-width="2" stroke-linecap="round" stroke-linejoin="round"/>
<path d="M157.594 330.807L215.824 325.156" stroke="#263238" stroke-width="2" stroke-linecap="round" stroke-linejoin="round"/>
<path d="M163.92 335.124L158.367 335.664L158.901 341.278L164.454 340.738L163.92 335.124Z" stroke="#263238" stroke-linecap="round" stroke-linejoin="round"/>
<path d="M173.998 334.156L168.445 334.695L168.979 340.309L174.532 339.77L173.998 334.156Z" stroke="#263238" stroke-linecap="round" stroke-linejoin="round"/>
<path d="M184.049 333.164L178.496 333.703L179.03 339.317L184.583 338.777L184.049 333.164Z" stroke="#263238" stroke-linecap="round" stroke-linejoin="round"/>
<path d="M194.116 332.183L188.562 332.723L189.096 338.337L194.649 337.797L194.116 332.183Z" stroke="#263238" stroke-linecap="round" stroke-linejoin="round"/>
<path d="M153.013 321.176C153.042 321.456 152.988 321.738 152.859 321.987C152.729 322.236 152.529 322.44 152.284 322.574C152.039 322.707 151.76 322.764 151.483 322.737C151.206 322.71 150.943 322.6 150.728 322.422C150.513 322.244 150.355 322.005 150.275 321.735C150.194 321.466 150.195 321.179 150.277 320.91C150.358 320.641 150.517 320.402 150.733 320.225C150.949 320.047 151.212 319.939 151.489 319.913C151.671 319.895 151.855 319.913 152.031 319.967C152.206 320.02 152.369 320.108 152.51 320.225C152.652 320.343 152.769 320.487 152.855 320.65C152.941 320.813 152.995 320.992 153.013 321.176Z" fill="#263238"/>
<path d="M152.828 256.336L153.727 257.477L156.182 253.754" stroke="#263238" stroke-width="2" stroke-linecap="round" stroke-linejoin="round"/>
<path d="M175.48 280.914L176.379 282.055L178.823 278.332" stroke="#263238" stroke-width="2" stroke-linecap="round" stroke-linejoin="round"/>
<path d="M168.02 309.32L168.918 310.461L171.373 306.738" stroke="#263238" stroke-width="2" stroke-linecap="round" stroke-linejoin="round"/>
<path d="M190.629 334.793L191.528 335.934L193.983 332.211" stroke="#263238" stroke-width="2" stroke-linecap="round" stroke-linejoin="round"/>
<path d="M336.636 152.582H280.005C278.005 152.582 276.088 153.385 274.673 154.815C273.259 156.244 272.465 158.183 272.465 160.205V209.411C272.465 211.433 273.259 213.372 274.673 214.802C276.088 216.231 278.005 217.034 280.005 217.034H305.104L319.483 234.552L315.877 217.034H336.636C338.63 217.026 340.539 216.219 341.946 214.79C343.353 213.361 344.143 211.427 344.143 209.411V160.205C344.143 158.189 343.353 156.255 341.946 154.826C340.539 153.398 338.63 152.591 336.636 152.582Z" fill="white" stroke="#263238" stroke-linecap="round" stroke-linejoin="round"/>
<path d="M312.851 179.573V174.365L308.993 174.033C308.763 173.22 308.443 172.436 308.04 171.695L310.528 168.703L306.878 165.025L303.919 167.54C303.189 167.126 302.413 166.802 301.606 166.576L301.277 162.676H296.126L295.797 166.576C294.991 166.802 294.214 167.126 293.485 167.54L290.526 165.025L286.876 168.703L289.342 171.739C288.933 172.479 288.609 173.263 288.377 174.077L284.52 174.409V179.617L288.377 179.961C288.609 180.775 288.933 181.559 289.342 182.298L286.843 185.29L290.493 188.969L293.452 186.453C294.182 186.868 294.958 187.191 295.764 187.417L296.093 191.318H301.244L301.573 187.417C302.38 187.191 303.156 186.868 303.886 186.453L306.845 188.969L310.495 185.29L308.007 182.298C308.41 181.558 308.73 180.773 308.96 179.961L312.851 179.573ZM298.702 183.03C297.516 183.032 296.356 182.679 295.369 182.014C294.382 181.35 293.612 180.405 293.156 179.299C292.7 178.192 292.58 176.974 292.809 175.797C293.038 174.621 293.607 173.54 294.444 172.691C295.281 171.842 296.348 171.263 297.51 171.027C298.673 170.791 299.879 170.909 300.975 171.365C302.071 171.822 303.009 172.597 303.669 173.593C304.33 174.588 304.684 175.759 304.686 176.958C304.689 177.753 304.536 178.54 304.238 179.276C303.939 180.011 303.499 180.679 302.944 181.242C302.389 181.805 301.73 182.252 301.004 182.557C300.278 182.862 299.499 183.019 298.713 183.019L298.702 183.03Z" fill="#F4881E"/>
<path d="M329.895 191.198V187.497L327.144 187.253C326.984 186.674 326.756 186.116 326.465 185.591L328.24 183.464L325.654 180.849L323.538 182.633C323.017 182.343 322.466 182.112 321.894 181.946L321.664 179.176H317.993L317.763 181.946C317.187 182.112 316.632 182.343 316.108 182.633L314.003 180.849L311.417 183.464L313.181 185.591C312.893 186.116 312.669 186.674 312.513 187.253L309.762 187.497V191.198L312.513 191.441C312.669 192.02 312.893 192.578 313.181 193.103L311.417 195.231L314.003 197.857L316.108 196.062C316.628 196.361 317.184 196.592 317.763 196.749L317.993 199.53H321.664L321.894 196.749C322.469 196.592 323.022 196.361 323.538 196.062L325.654 197.857L328.24 195.231L326.465 193.103C326.761 192.581 326.989 192.023 327.144 191.441L329.895 191.198ZM319.823 193.657C318.98 193.657 318.155 193.405 317.454 192.931C316.753 192.457 316.207 191.784 315.884 190.997C315.561 190.209 315.477 189.342 315.641 188.506C315.806 187.67 316.212 186.902 316.808 186.3C317.405 185.697 318.164 185.286 318.991 185.12C319.818 184.954 320.676 185.039 321.455 185.365C322.234 185.691 322.899 186.244 323.368 186.953C323.836 187.661 324.086 188.495 324.086 189.347C324.086 190.49 323.637 191.587 322.838 192.395C322.038 193.203 320.954 193.657 319.823 193.657Z" fill="#F4881E"/>
<path d="M311.965 199.828V197.225L310.004 197.047C309.891 196.634 309.729 196.236 309.521 195.862L310.782 194.355L308.94 192.482L307.439 193.757C307.069 193.556 306.679 193.392 306.277 193.269L306.102 191.297H303.493L303.329 193.269C302.921 193.387 302.528 193.551 302.156 193.757L300.655 192.482L298.813 194.355L300.074 195.862C299.87 196.238 299.708 196.635 299.592 197.047L297.641 197.225V199.851L299.592 200.028C299.708 200.44 299.87 200.838 300.074 201.213L298.813 202.765L300.655 204.637L302.156 203.363C302.53 203.564 302.923 203.727 303.329 203.851L303.493 205.823H306.102L306.277 203.851C306.679 203.727 307.069 203.564 307.439 203.363L308.94 204.637L310.782 202.765L309.521 201.258C309.729 200.884 309.891 200.486 310.004 200.072L311.965 199.828ZM304.798 201.579C304.197 201.579 303.61 201.399 303.111 201.062C302.612 200.725 302.222 200.245 301.993 199.684C301.763 199.124 301.703 198.507 301.82 197.911C301.937 197.316 302.226 196.769 302.651 196.34C303.075 195.911 303.616 195.618 304.205 195.5C304.794 195.381 305.405 195.442 305.959 195.674C306.514 195.907 306.988 196.3 307.322 196.805C307.655 197.31 307.833 197.903 307.833 198.51C307.831 199.322 307.509 200.1 306.94 200.673C306.371 201.246 305.601 201.568 304.798 201.568V201.579Z" fill="#F4881E"/>
<path d="M306.805 341.676L350.952 506.302H357.55L313.414 341.676H306.805Z" fill="#757575" stroke="#263238" stroke-linecap="round" stroke-linejoin="round"/>
<path d="M406.234 459.633H322.555V466.525H406.234V459.633Z" fill="#999999" stroke="#263238" stroke-linecap="round" stroke-linejoin="round"/>
<path d="M450.872 304.702L396.807 506.358H390.231L444.285 304.702C446.28 297.267 441.71 291.217 434.093 291.217H387.513C379.906 291.217 372.081 297.267 370.086 304.702L316.01 506.358H309.434L363.499 304.702C366.448 293.699 377.977 284.758 389.244 284.758H435.835C447.069 284.758 453.821 293.688 450.872 304.702Z" fill="#757575" stroke="#263238" stroke-linecap="round" stroke-linejoin="round"/>
<path d="M451.727 304.756L438.312 354.816C437.666 356.923 436.389 358.776 434.658 360.119C432.927 361.463 430.826 362.23 428.646 362.317H352.101C351.178 362.39 350.252 362.229 349.406 361.847C348.561 361.466 347.823 360.876 347.261 360.133C346.699 359.389 346.33 358.515 346.187 357.59C346.045 356.665 346.134 355.719 346.446 354.838L359.872 304.779C360.523 302.676 361.802 300.829 363.532 299.49C365.263 298.151 367.361 297.386 369.538 297.3H446.072C446.802 297.247 447.535 297.34 448.229 297.574C448.923 297.807 449.565 298.177 450.118 298.662C450.67 299.146 451.123 299.737 451.45 300.398C451.777 301.06 451.972 301.78 452.023 302.518C452.073 303.277 451.972 304.038 451.727 304.756Z" fill="#F4881E"/>
<mask id="mask2_1595_1270" style="mask-type:luminance" maskUnits="userSpaceOnUse" x="346" y="297" width="107" height="66">
<path d="M451.727 304.756L438.312 354.816C437.666 356.923 436.389 358.776 434.658 360.119C432.927 361.463 430.826 362.23 428.646 362.317H352.101C351.178 362.39 350.252 362.229 349.406 361.847C348.561 361.466 347.823 360.876 347.261 360.133C346.699 359.389 346.33 358.515 346.187 357.59C346.045 356.665 346.134 355.719 346.446 354.838L359.872 304.779C360.523 302.676 361.802 300.829 363.532 299.49C365.263 298.151 367.361 297.386 369.538 297.3H446.072C446.802 297.247 447.535 297.34 448.229 297.574C448.923 297.807 449.565 298.177 450.118 298.662C450.67 299.146 451.123 299.737 451.45 300.398C451.777 301.06 451.972 301.78 452.023 302.518C452.073 303.277 451.972 304.038 451.727 304.756Z" fill="white"/>
</mask>
<g mask="url(#mask2_1595_1270)">
<path opacity="0.2" d="M451.727 304.756L438.312 354.815C437.666 356.922 436.389 358.775 434.658 360.119C432.927 361.462 430.826 362.23 428.646 362.316H352.101C351.178 362.39 350.252 362.228 349.406 361.847C348.561 361.465 347.823 360.876 347.261 360.132C346.699 359.388 346.33 358.514 346.187 357.59C346.045 356.665 346.134 355.719 346.446 354.837L359.872 304.778C360.523 302.676 361.802 300.829 363.532 299.49C365.263 298.151 367.361 297.386 369.538 297.299H409.115C426.223 315.027 424.042 347.702 422.924 357.563C424.71 357.128 426.354 356.234 427.698 354.969C429.042 353.703 430.04 352.109 430.596 350.339L443.99 300.268C444.263 299.3 444.319 298.281 444.154 297.288H446.072C446.992 297.221 447.914 297.387 448.755 297.769C449.596 298.152 450.33 298.74 450.891 299.48C451.452 300.221 451.822 301.091 451.968 302.011C452.114 302.932 452.031 303.875 451.727 304.756Z" fill="black" fill-opacity="0.7"/>
</g>
<path d="M451.727 304.756L438.312 354.816C437.666 356.923 436.389 358.776 434.658 360.119C432.927 361.463 430.826 362.23 428.646 362.317H352.101C351.178 362.39 350.252 362.229 349.406 361.847C348.561 361.466 347.823 360.876 347.261 360.133C346.699 359.389 346.33 358.515 346.187 357.59C346.045 356.665 346.134 355.719 346.446 354.838L359.872 304.779C360.523 302.676 361.802 300.829 363.532 299.49C365.263 298.151 367.361 297.386 369.538 297.3H446.072C446.802 297.247 447.535 297.34 448.229 297.574C448.923 297.807 449.565 298.177 450.118 298.662C450.67 299.146 451.123 299.737 451.45 300.398C451.777 301.06 451.972 301.78 452.023 302.518C452.073 303.277 451.972 304.038 451.727 304.756Z" stroke="#263238" stroke-linecap="round" stroke-linejoin="round"/>
<path d="M406.727 412.965L431.759 506.303H438.357L413.335 412.965H406.727Z" fill="#757575" stroke="#263238" stroke-linecap="round" stroke-linejoin="round"/>
<path d="M413.357 402.203V411.333H314.805V402.203C314.805 400.422 315.504 398.714 316.75 397.455C317.996 396.196 319.685 395.488 321.446 395.488H406.704C407.578 395.485 408.443 395.657 409.251 395.993C410.059 396.33 410.793 396.824 411.411 397.448C412.029 398.072 412.519 398.813 412.853 399.629C413.187 400.445 413.358 401.32 413.357 402.203Z" fill="#F4881E"/>
<mask id="mask3_1595_1270" style="mask-type:luminance" maskUnits="userSpaceOnUse" x="314" y="395" width="100" height="17">
<path d="M413.357 402.203V411.333H314.805V402.203C314.805 400.422 315.504 398.714 316.75 397.455C317.996 396.196 319.685 395.488 321.446 395.488H406.704C407.578 395.485 408.443 395.657 409.251 395.993C410.059 396.33 410.793 396.824 411.411 397.448C412.029 398.072 412.519 398.813 412.853 399.629C413.187 400.445 413.358 401.32 413.357 402.203Z" fill="white"/>
</mask>
<g mask="url(#mask3_1595_1270)">
<path opacity="0.2" d="M413.127 400.485C409.937 404.275 404.216 408.131 394.374 411.377H314.805V402.203C314.805 400.422 315.504 398.714 316.75 397.455C317.996 396.196 319.685 395.488 321.446 395.488H406.704C408.17 395.49 409.594 395.98 410.755 396.884C411.916 397.788 412.75 399.054 413.127 400.485Z" fill="black" fill-opacity="0.7"/>
</g>
<path d="M413.357 402.203V411.333H314.805V402.203C314.805 400.422 315.504 398.714 316.75 397.455C317.996 396.196 319.685 395.488 321.446 395.488H406.704C407.578 395.485 408.443 395.657 409.251 395.993C410.059 396.33 410.793 396.824 411.411 397.448C412.029 398.072 412.519 398.813 412.853 399.629C413.187 400.445 413.358 401.32 413.357 402.203Z" stroke="#263238" stroke-linecap="round" stroke-linejoin="round"/>
<path d="M416.699 408.574H312.316C311.28 408.574 310.441 409.422 310.441 410.469V415.244C310.441 416.291 311.28 417.139 312.316 417.139H416.699C417.734 417.139 418.573 416.291 418.573 415.244V410.469C418.573 409.422 417.734 408.574 416.699 408.574Z" fill="#999999" stroke="#263238" stroke-linecap="round" stroke-linejoin="round"/>
<path d="M311.604 408.851C306.88 413.715 329.776 490.145 329.776 490.145C327.277 492.361 323.594 493.38 320.109 493.845C316.905 494.248 313.668 494.296 310.453 493.989C310.453 493.989 277.639 413.527 286.67 393.56C295.701 373.594 351.74 364.531 351.74 364.531L354.129 358.548L383.118 354.426L387.908 390.314C387.908 390.314 383.151 390.779 375.994 391.71C356.803 394.17 320.285 399.987 311.604 408.851Z" fill="#263238"/>
<mask id="mask4_1595_1270" style="mask-type:luminance" maskUnits="userSpaceOnUse" x="285" y="354" width="103" height="141">
<path d="M311.604 408.851C306.88 413.715 329.776 490.145 329.776 490.145C327.277 492.361 323.594 493.38 320.109 493.845C316.905 494.248 313.668 494.296 310.453 493.989C310.453 493.989 277.639 413.527 286.67 393.56C295.701 373.594 351.74 364.531 351.74 364.531L354.129 358.548L383.118 354.426L387.908 390.314C387.908 390.314 383.151 390.779 375.994 391.71C356.803 394.17 320.285 399.987 311.604 408.851Z" fill="white"/>
</mask>
<g mask="url(#mask4_1595_1270)">
<path opacity="0.3" d="M329.775 490.187C327.276 492.403 323.593 493.423 320.108 493.888C313.74 469.955 297.53 406.09 303.668 398.279C311.241 388.639 348.724 379.875 348.724 379.875C348.878 374.955 362.019 370.523 362.019 370.523L375.982 391.675C356.791 394.168 320.272 399.985 311.592 408.849C306.879 413.758 329.775 490.187 329.775 490.187Z" fill="black"/>
</g>
<path d="M311.604 408.851C306.88 413.715 329.776 490.145 329.776 490.145C327.277 492.361 323.594 493.38 320.109 493.845C316.905 494.248 313.668 494.296 310.453 493.989C310.453 493.989 277.639 413.527 286.67 393.56C295.701 373.594 351.74 364.531 351.74 364.531L354.129 358.548L383.118 354.426L387.908 390.314C387.908 390.314 383.151 390.779 375.994 391.71C356.803 394.17 320.285 399.987 311.604 408.851Z" stroke="#263238" stroke-linecap="round" stroke-linejoin="round"/>
<path d="M295.385 336.511C290.574 335.68 324.824 305.32 324.824 305.32L341.34 316.555C341.34 316.555 313.239 336.566 308.822 337.109C304.405 337.652 295.385 336.511 295.385 336.511Z" fill="white"/>
<mask id="mask5_1595_1270" style="mask-type:luminance" maskUnits="userSpaceOnUse" x="294" y="305" width="48" height="33">
<path d="M295.385 336.511C290.574 335.68 324.824 305.32 324.824 305.32L341.34 316.555C341.34 316.555 313.239 336.566 308.822 337.109C304.405 337.652 295.385 336.511 295.385 336.511Z" fill="white"/>
</mask>
<g mask="url(#mask5_1595_1270)">
<path opacity="0.2" d="M295.385 336.511C290.574 335.68 324.824 305.32 324.824 305.32L341.34 316.555C341.34 316.555 313.239 336.566 308.822 337.109C304.405 337.652 295.385 336.511 295.385 336.511Z" fill="black" fill-opacity="0.7"/>
</g>
<path d="M295.385 336.511C290.574 335.68 324.824 305.32 324.824 305.32L341.34 316.555C341.34 316.555 313.239 336.566 308.822 337.109C304.405 337.652 295.385 336.511 295.385 336.511Z" stroke="#263238" stroke-linecap="round" stroke-linejoin="round"/>
<path d="M301.402 323.746C301.402 323.746 308.581 325.552 310.784 327.07C312.987 328.588 312.351 334.073 312.351 334.073C312.351 334.073 302.783 331.347 301.402 323.746Z" fill="white" stroke="#263238" stroke-linecap="round" stroke-linejoin="round"/>
<path d="M296.82 309.841L310.17 335.723H311.748L299.067 308.566L296.82 309.841Z" fill="#263238"/>
<path d="M308.853 328.557C308.853 328.557 300.436 322.508 298.375 322.508C296.315 322.508 290.145 329.876 290.145 333.588C290.145 337.3 303.603 339.327 306.234 336.192C307.549 334.629 304.941 330.862 304.941 330.862C306.507 332.548 308.188 334.121 309.971 335.571C311.067 336.192 313.161 335.383 313.161 335.383C313.161 335.383 310.355 330.84 308.853 328.557Z" fill="white" stroke="#263238" stroke-linecap="round" stroke-linejoin="round"/>
<path d="M304.939 337.045C302.999 334.554 300.616 332.449 297.914 330.84" stroke="#263238" stroke-linecap="round" stroke-linejoin="round"/>
<path d="M304.94 330.839C304.94 330.839 302.024 328.268 300.062 327.703" stroke="#263238" stroke-linecap="round" stroke-linejoin="round"/>
<path d="M295.766 334.105C297.804 335.161 299.77 336.353 301.651 337.673" stroke="#263238" stroke-linecap="round" stroke-linejoin="round"/>
<path d="M335.554 292.047C331.247 295.083 311.902 315.193 311.902 315.193C311.902 315.193 320.966 325.619 328.912 327.126L350.449 316.556L335.554 292.047Z" fill="#F4881E" stroke="#263238" stroke-linecap="round" stroke-linejoin="round"/>
<path opacity="0.4" d="M335.554 292.047C331.247 295.083 311.902 315.193 311.902 315.193C311.902 315.193 320.966 325.619 328.912 327.126L350.449 316.556L335.554 292.047Z" fill="white" stroke="#263238" stroke-linecap="round" stroke-linejoin="round"/>
<path d="M325.152 482.082L334.281 506.358C334.281 506.358 335.794 512.596 308.262 510.624L293.094 509.317L325.152 482.082Z" fill="#F4881E"/>
<mask id="mask6_1595_1270" style="mask-type:luminance" maskUnits="userSpaceOnUse" x="293" y="482" width="42" height="30">
<path d="M325.152 482.082L334.281 506.358C334.281 506.358 335.794 512.596 308.262 510.624L293.094 509.317L325.152 482.082Z" fill="white"/>
</mask>
<g mask="url(#mask6_1595_1270)">
<path opacity="0.3" d="M325.152 482.082L334.281 506.358C334.281 506.358 335.794 512.596 308.262 510.624L293.094 509.317L325.152 482.082Z" fill="black"/>
</g>
<path d="M325.152 482.082L334.281 506.358C334.281 506.358 335.794 512.596 308.262 510.624L293.094 509.317L325.152 482.082Z" stroke="#263238" stroke-linecap="round" stroke-linejoin="round"/>
<path d="M321.689 493.69C321.689 493.69 323.639 503.119 321.689 510.133C321.689 510.133 292.634 514.731 286.134 512.981C279.635 511.23 275.689 507.95 275.492 506.333C275.492 506.333 275.722 501.834 282.233 500.516C288.743 499.197 301.687 498.3 306.805 490.876C311.923 483.452 321.689 493.69 321.689 493.69Z" fill="#F4881E" stroke="#263238" stroke-linecap="round" stroke-linejoin="round"/>
<path d="M360.025 357.574C369.308 344.189 411.986 360.299 411.986 360.299C411.986 360.299 416.053 392.52 399.054 401.118C382.055 409.716 357.548 409.251 350.928 416.22L323.989 496.639C323.989 496.639 314.311 500.727 300.238 494.29C300.238 494.29 317.347 433.56 322.367 411.999C327.331 390.659 359.477 376.177 359.477 376.177C357.82 374.199 356.565 371.909 355.784 369.44" fill="#263238"/>
<path d="M360.025 357.574C369.308 344.189 411.986 360.299 411.986 360.299C411.986 360.299 416.053 392.52 399.054 401.118C382.055 409.716 357.548 409.251 350.928 416.22L323.989 496.639C323.989 496.639 314.311 500.727 300.238 494.29C300.238 494.29 317.347 433.56 322.367 411.999C327.331 390.659 359.477 376.177 359.477 376.177C357.82 374.199 356.565 371.909 355.784 369.44" stroke="#263238" stroke-linecap="round" stroke-linejoin="round"/>
<path d="M403.231 388.375C401.869 389.595 400.438 390.735 398.945 391.788" stroke="white" stroke-linecap="round" stroke-linejoin="round"/>
<path d="M406.725 361.086C410.21 368.731 410.484 378.437 405.629 385.517" stroke="white" stroke-linecap="round" stroke-linejoin="round"/>
<path d="M397.006 362.316C397.006 362.316 396.118 368.211 398.715 370.549C401.313 372.887 409.281 374.072 409.281 374.072" stroke="white" stroke-linecap="round" stroke-linejoin="round"/>
<path d="M362.022 362.582C362.022 362.582 362.384 368.454 360.028 368.177C357.671 367.9 357.551 370.526 357.551 370.526" stroke="white" stroke-linecap="round" stroke-linejoin="round"/>
<path d="M336.121 296.566C335.761 295.086 335.57 293.569 335.551 292.045C335.551 292.045 348.703 280.832 365.636 280.899C385.802 280.965 398.132 287.381 403.064 296.289C410.89 310.383 411.986 360.298 411.986 360.298C411.986 360.298 361.383 368.187 354.128 358.514C352.868 356.83 353.832 344.941 353.832 344.941C353.832 344.941 348.166 329.917 346.971 318.26C345.306 315.941 343.759 313.537 342.335 311.058C340.533 308.008 338.972 304.818 337.666 301.519" fill="#F4881E"/>
<path d="M336.121 296.566C335.761 295.086 335.57 293.569 335.551 292.045C335.551 292.045 348.703 280.832 365.636 280.899C385.802 280.965 398.132 287.381 403.064 296.289C410.89 310.383 411.986 360.298 411.986 360.298C411.986 360.298 361.383 368.187 354.128 358.514C352.868 356.83 353.832 344.941 353.832 344.941C353.832 344.941 348.166 329.917 346.971 318.26C345.306 315.941 343.759 313.537 342.335 311.058C340.533 308.008 338.972 304.818 337.666 301.519" stroke="#263238" stroke-linecap="round" stroke-linejoin="round"/>
<g opacity="0.6">
<path d="M336.121 296.566C335.761 295.086 335.57 293.569 335.551 292.045C335.551 292.045 348.703 280.832 365.636 280.899C385.802 280.965 398.132 287.381 403.064 296.289C410.89 310.383 411.986 360.298 411.986 360.298C411.986 360.298 361.383 368.187 354.128 358.514C352.868 356.83 353.832 344.941 353.832 344.941C353.832 344.941 348.166 329.917 346.971 318.26C345.306 315.941 343.759 313.537 342.335 311.058C340.533 308.008 338.972 304.818 337.666 301.519" fill="white"/>
<path d="M336.121 296.566C335.761 295.086 335.57 293.569 335.551 292.045C335.551 292.045 348.703 280.832 365.636 280.899C385.802 280.965 398.132 287.381 403.064 296.289C410.89 310.383 411.986 360.298 411.986 360.298C411.986 360.298 361.383 368.187 354.128 358.514C352.868 356.83 353.832 344.941 353.832 344.941C353.832 344.941 348.166 329.917 346.971 318.26C345.306 315.941 343.759 313.537 342.335 311.058C340.533 308.008 338.972 304.818 337.666 301.519" stroke="#263238" stroke-linecap="round" stroke-linejoin="round"/>
</g>
<path d="M355.5 308.566C355.5 308.566 363.227 338.87 362.076 345.54C361.801 347.842 362.181 350.175 363.172 352.266C362.162 353.339 361.513 354.707 361.316 356.175C361.12 357.643 361.385 359.137 362.076 360.443" stroke="#263238" stroke-linecap="round" stroke-linejoin="round"/>
<path d="M375.995 333.643C374.615 333.59 373.274 333.161 372.115 332.402L369.824 322.253C374.369 322.671 378.951 322.345 383.393 321.289L385.848 332.369C384.467 332.758 383.066 333.065 381.65 333.289" stroke="#263238" stroke-linecap="round" stroke-linejoin="round"/>
<path d="M350.008 312.51C350.008 312.51 343.432 284.19 360.026 280.899C376.619 277.608 380.028 285.442 379.052 290.749C377.748 297.829 363.993 315.191 363.993 315.191L355.499 308.543L350.008 312.51Z" fill="#F4881E" stroke="#263238" stroke-linecap="round" stroke-linejoin="round"/>
<path opacity="0.4" d="M350.008 312.51C350.008 312.51 343.432 284.19 360.026 280.899C376.619 277.608 380.028 285.442 379.052 290.749C377.748 297.829 363.993 315.191 363.993 315.191L355.499 308.543L350.008 312.51Z" fill="white" stroke="#263238" stroke-linecap="round" stroke-linejoin="round"/>
<path d="M328.242 399.99C328.242 399.99 338.961 387.48 363.161 378.029C363.161 378.029 356.892 376.09 355.489 373.453" stroke="white" stroke-linecap="round" stroke-linejoin="round"/>
<path d="M315.638 438.27L305.84 474.235" stroke="white" stroke-linecap="round" stroke-linejoin="round"/>
<path d="M391.348 334.616C391.348 334.616 395.732 342.095 413.783 341.408C410.423 337.771 406.174 335.096 401.464 333.652C394.088 331.657 391.348 334.616 391.348 334.616Z" fill="#F4881E" stroke="#263238" stroke-linecap="round" stroke-linejoin="round"/>
<path d="M321.316 337.618C321.316 337.618 325.503 331.058 329.339 329.74C333.175 328.421 344.442 328.311 346.185 328.266C347.927 328.222 378.889 336.177 393.422 341.075L392.151 316.555L411.682 318.117C411.682 318.117 410.892 348.033 407.857 355.955C404.821 363.877 400.47 361.949 393.05 358.714C363.863 346.005 346.766 337.152 345.176 337.662C343.587 338.172 321.316 337.618 321.316 337.618Z" fill="white" stroke="#263238" stroke-linecap="round" stroke-linejoin="round"/>
<path d="M387.271 302.305C386.76 304.338 386.597 306.444 386.788 308.532C387.654 316.2 391.348 334.614 391.348 334.614C391.348 334.614 409.552 337.24 413.783 341.407C413.783 341.407 416.786 317.031 410.67 304.654C404.555 292.278 398.231 290.915 398.231 290.915C394.23 289.918 390.559 293.685 388.531 298.527" fill="#F4881E"/>
<path d="M387.271 302.305C386.76 304.338 386.597 306.444 386.788 308.532C387.654 316.2 391.348 334.614 391.348 334.614C391.348 334.614 409.552 337.24 413.783 341.407C413.783 341.407 416.786 317.031 410.67 304.654C404.555 292.278 398.231 290.915 398.231 290.915C394.23 289.918 390.559 293.685 388.531 298.527" stroke="#263238" stroke-linecap="round" stroke-linejoin="round"/>
<g opacity="0.4">
<path d="M387.271 302.305C386.76 304.338 386.597 306.444 386.788 308.532C387.654 316.2 391.348 334.614 391.348 334.614C391.348 334.614 409.552 337.24 413.783 341.407C413.783 341.407 416.786 317.031 410.67 304.654C404.555 292.278 398.231 290.915 398.231 290.915C394.23 289.918 390.559 293.685 388.531 298.527" fill="white"/>
<path d="M387.271 302.305C386.76 304.338 386.597 306.444 386.788 308.532C387.654 316.2 391.348 334.614 391.348 334.614C391.348 334.614 409.552 337.24 413.783 341.407C413.783 341.407 416.786 317.031 410.67 304.654C404.555 292.278 398.231 290.915 398.231 290.915C394.23 289.918 390.559 293.685 388.531 298.527" stroke="#263238" stroke-linecap="round" stroke-linejoin="round"/>
</g>
<path d="M333.789 311.793C336.515 314.047 339.694 315.673 343.105 316.557" stroke="#263238" stroke-linecap="round" stroke-linejoin="round"/>
<path d="M391.348 311.793C391.348 311.793 397.924 324.358 406.231 327.128" stroke="#263238" stroke-linecap="round" stroke-linejoin="round"/>
<path d="M348.738 408.574C348.738 408.574 349.955 409.505 350.448 412.862" stroke="white" stroke-linecap="round" stroke-linejoin="round"/>
<path d="M344.234 412.863C345.293 412.979 346.317 413.317 347.239 413.855C348.162 414.393 348.964 415.119 349.594 415.988" stroke="white" stroke-linecap="round" stroke-linejoin="round"/>
<path d="M307.977 399.988C307.977 399.988 311.484 401.783 310.728 406.869" stroke="white" stroke-linecap="round" stroke-linejoin="round"/>
<path d="M304.285 404.309C304.285 404.309 309.075 407.178 309.414 409.749" stroke="white" stroke-linecap="round" stroke-linejoin="round"/>
<path d="M359.797 373.309C359.797 373.309 370.461 374.815 372.85 373.309" stroke="white" stroke-linecap="round" stroke-linejoin="round"/>
<path d="M355.499 307.348C354.579 304.709 354.206 301.907 354.403 299.115C354.447 298.169 354.546 297.225 354.699 296.29L352.847 293.321L350.469 289.498L353.22 278.418C353.22 278.418 370.756 281.831 372.071 286.772C373.386 291.714 355.499 307.348 355.499 307.348Z" fill="white"/>
<mask id="mask7_1595_1270" style="mask-type:luminance" maskUnits="userSpaceOnUse" x="350" y="278" width="23" height="30">
<path d="M355.499 307.348C354.579 304.709 354.206 301.907 354.403 299.115C354.447 298.169 354.546 297.225 354.699 296.29L352.847 293.321L350.469 289.498L353.22 278.418C353.22 278.418 370.756 281.831 372.071 286.772C373.386 291.714 355.499 307.348 355.499 307.348Z" fill="white"/>
</mask>
<g mask="url(#mask7_1595_1270)">
<path opacity="0.2" d="M354.381 299.16C354.424 298.213 354.523 297.269 354.676 296.334L352.824 293.365C356.163 292.843 359.202 291.119 361.384 288.512C361.476 290.806 360.848 293.072 359.591 294.984C358.333 296.896 356.509 298.358 354.381 299.16Z" fill="black" fill-opacity="0.7"/>
</g>
<path d="M355.499 307.348C354.579 304.709 354.206 301.907 354.403 299.115C354.447 298.169 354.546 297.225 354.699 296.29L352.847 293.321L350.469 289.498L353.22 278.418C353.22 278.418 370.756 281.831 372.071 286.772C373.386 291.714 355.499 307.348 355.499 307.348Z" stroke="#263238" stroke-linecap="round" stroke-linejoin="round"/>
<path d="M366.502 279.35C371.982 264.946 368.344 240.426 342.04 245.124C326.608 247.894 324.745 266.752 329.896 275.129C335.047 283.505 329.578 283.771 337.327 289.976C340.472 292.491 343.004 296.757 346.752 297.034C351.213 297.344 356.923 293.078 361.187 288.469" fill="white"/>
<path d="M366.502 279.35C371.982 264.946 368.344 240.426 342.04 245.124C326.608 247.894 324.745 266.752 329.896 275.129C335.047 283.505 329.578 283.771 337.327 289.976C340.472 292.491 343.004 296.757 346.752 297.034C351.213 297.344 356.923 293.078 361.187 288.469" stroke="#263238" stroke-linecap="round" stroke-linejoin="round"/>
<path d="M340.582 275.127C340.582 275.127 344.462 271.559 349.076 273.033" stroke="#263238" stroke-linecap="round" stroke-linejoin="round"/>
<path d="M333.316 275.126C332.795 274.201 332.071 273.409 331.198 272.814C330.326 272.218 329.329 271.834 328.285 271.691" stroke="#263238" stroke-linecap="round" stroke-linejoin="round"/>
<path d="M335.882 280.324C335.882 280.324 335.323 283.194 334.589 286.097C333.855 289 339.192 287.415 338.973 286.972" fill="white"/>
<path d="M335.882 280.324C335.882 280.324 335.323 283.194 334.589 286.097C333.855 289 339.192 287.415 338.973 286.972" stroke="#263238" stroke-linecap="round" stroke-linejoin="round"/>
<path d="M341.723 290.596C343.986 289.941 345.999 288.608 347.499 286.773" stroke="#263238" stroke-linecap="round" stroke-linejoin="round"/>
<path d="M345.988 278.774C346.066 278.914 346.115 279.068 346.134 279.227C346.154 279.386 346.141 279.547 346.099 279.702C346.056 279.856 345.983 280.001 345.885 280.127C345.787 280.253 345.666 280.358 345.527 280.436C345.246 280.592 344.916 280.629 344.608 280.539C344.301 280.45 344.04 280.242 343.883 279.96C343.783 279.789 343.73 279.594 343.73 279.395C343.652 279.255 343.602 279.101 343.583 278.942C343.564 278.783 343.576 278.622 343.619 278.467C343.662 278.313 343.734 278.168 343.832 278.042C343.93 277.916 344.052 277.811 344.19 277.733C344.471 277.578 344.801 277.54 345.109 277.63C345.417 277.719 345.677 277.927 345.834 278.209C345.935 278.38 345.988 278.575 345.988 278.774Z" fill="#263238"/>
<path d="M334.282 278.528C334.501 279.326 334.347 280.079 333.931 280.19C333.514 280.301 332.999 279.747 332.835 278.938C332.67 278.129 332.78 277.387 333.197 277.276C333.613 277.165 334.04 277.719 334.282 278.528Z" fill="#263238"/>
<path d="M350.283 260.292C350.283 260.292 346.206 271.073 336.123 270.829C336.123 270.829 339.619 268.136 340.583 265.566C340.583 265.566 332.824 273.322 325.075 269.377C317.326 265.433 321.129 247.084 333.021 239.838C344.913 232.592 357.078 234.531 361.199 241.456C361.199 241.456 369.529 240.68 373.2 253.057C376.488 264.137 371.228 280.934 366.087 281.122C358.119 281.421 356.519 272.679 356.519 272.679C353.23 269.297 351.052 264.971 350.283 260.292Z" fill="#263238" stroke="#263238" stroke-linecap="round" stroke-linejoin="round"/>
<path d="M359.017 279.404C359.017 279.404 358.765 269.233 364.497 270.463C370.229 271.692 366.075 283.448 361.768 283.326" fill="white"/>
<path d="M359.017 279.404C359.017 279.404 358.765 269.233 364.497 270.463C370.229 271.692 366.075 283.448 361.768 283.326" stroke="#263238" stroke-linecap="round" stroke-linejoin="round"/>
<path d="M341.317 336.512H252.947C251.96 336.512 251.16 337.32 251.16 338.318V341.431C251.16 342.429 251.96 343.237 252.947 343.237H341.317C342.304 343.237 343.104 342.429 343.104 341.431V338.318C343.104 337.32 342.304 336.512 341.317 336.512Z" fill="#F4881E" stroke="#263238" stroke-linecap="round" stroke-linejoin="round"/>
<path d="M122.525 471.852H85.25L89.1518 506.299H118.623L122.525 471.852Z" fill="#263238" stroke="#263238" stroke-linecap="round" stroke-linejoin="round"/>
<path d="M126.939 447.875C126.939 447.875 110.664 449.171 109.984 461.315C109.984 461.315 126.468 468.982 126.939 447.875Z" fill="#F4881E" stroke="#263238" stroke-linecap="round" stroke-linejoin="round"/>
<path d="M94.7395 450.889C94.7395 450.889 85.6427 438.457 70.9453 444.828C70.9453 444.828 79.9216 459.82 94.7395 450.889Z" fill="#F4881E" stroke="#263238" stroke-linecap="round" stroke-linejoin="round"/>
<path d="M72.194 411.643C72.194 411.643 69.5746 435.554 91.111 428.973C91.111 428.973 84.272 411.389 72.194 411.643Z" fill="#F4881E" stroke="#263238" stroke-linecap="round" stroke-linejoin="round"/>
<path d="M98.6393 398.324C98.6393 398.324 81.6075 407.609 94.1348 421.703C94.1238 421.703 106.059 411.631 98.6393 398.324Z" fill="#F4881E" stroke="#263238" stroke-linecap="round" stroke-linejoin="round"/>
<path d="M119.585 419.698C119.585 419.698 101.062 417.803 101.062 435.132C101.062 435.132 119.585 435.875 119.585 419.698Z" fill="#F4881E" stroke="#263238" stroke-linecap="round" stroke-linejoin="round"/>
<path d="M102.127 486.046C102.127 486.046 110.567 468.141 102.467 449.903C94.3677 431.666 91.6167 416.298 95.8911 405.473" stroke="#263238" stroke-linecap="round" stroke-linejoin="round"/>
<path d="M113.502 424.363C113.502 424.363 102.4 428.795 98.6406 440.374" stroke="#263238" stroke-linecap="round" stroke-linejoin="round"/>
<path d="M78.0469 421.203C78.0469 421.203 84.4585 430.067 95.3198 429.081" stroke="#263238" stroke-linecap="round" stroke-linejoin="round"/>
<path d="M78.0469 447.375C78.0469 447.375 95.8021 452.538 102.86 450.854" stroke="#263238" stroke-linecap="round" stroke-linejoin="round"/>
<path d="M121.655 453.336C121.655 453.336 113.709 462.2 105.73 462.012" stroke="#263238" stroke-linecap="round" stroke-linejoin="round"/>
<path d="M124.124 471.086H83.6484V475.95H124.124V471.086Z" fill="#263238" stroke="#263238" stroke-linecap="round" stroke-linejoin="round"/>
<path d="M417.838 439.875C408.376 446.124 400.436 454.458 394.614 464.251C384.958 480.539 377.308 503.452 389.188 506.355L400.488 505.923L422.233 498.377L419.953 493.945C419.953 493.945 400.916 504.139 397.661 504.139C394.405 504.139 390.164 504.959 388.377 503.64C386.591 502.322 394.636 472.705 411.854 462.833C429.072 452.96 417.838 439.875 417.838 439.875Z" fill="#F4881E"/>
<mask id="mask8_1595_1270" style="mask-type:luminance" maskUnits="userSpaceOnUse" x="383" y="439" width="40" height="68">
<path d="M417.838 439.875C408.376 446.124 400.436 454.458 394.614 464.251C384.958 480.539 377.308 503.452 389.188 506.355L400.488 505.923L422.233 498.377L419.953 493.945C419.953 493.945 400.916 504.139 397.661 504.139C394.405 504.139 390.164 504.959 388.377 503.64C386.591 502.322 394.636 472.705 411.854 462.833C429.072 452.96 417.838 439.875 417.838 439.875Z" fill="white"/>
</mask>
<g mask="url(#mask8_1595_1270)">
<path opacity="0.5" d="M417.838 439.875C408.376 446.124 400.436 454.458 394.614 464.251C384.958 480.539 377.308 503.452 389.188 506.355L400.488 505.923L422.233 498.377L419.953 493.945C419.953 493.945 400.916 504.139 397.661 504.139C394.405 504.139 390.164 504.959 388.377 503.64C386.591 502.322 394.636 472.705 411.854 462.833C429.072 452.96 417.838 439.875 417.838 439.875Z" fill="black" fill-opacity="0.7"/>
</g>
<path d="M417.838 439.875C408.376 446.124 400.436 454.458 394.614 464.251C384.958 480.539 377.308 503.452 389.188 506.355L400.488 505.923L422.233 498.377L419.953 493.945C419.953 493.945 400.916 504.139 397.661 504.139C394.405 504.139 390.164 504.959 388.377 503.64C386.591 502.322 394.636 472.705 411.854 462.833C429.072 452.96 417.838 439.875 417.838 439.875Z" stroke="#263238" stroke-linecap="round" stroke-linejoin="round"/>
<path d="M430.211 429.195C430.211 429.195 430.211 424.42 437.368 423.766C444.525 423.112 445.544 430.082 445.544 430.082H443.078C443.078 430.082 443.133 425.904 437.872 425.583C432.611 425.262 432.808 430.082 432.808 430.082L430.211 429.195Z" fill="#F4881E" stroke="#263238" stroke-linecap="round" stroke-linejoin="round"/>
<path d="M419.626 506.356C404.491 506.356 407.362 437.737 409.105 434.336C410.847 430.934 454.764 429.239 459.093 430.679C463.422 432.12 480.783 500.483 471.204 505.946L419.626 506.356Z" fill="#F4881E"/>
<mask id="mask9_1595_1270" style="mask-type:luminance" maskUnits="userSpaceOnUse" x="407" y="430" width="68" height="77">
<path d="M419.626 506.356C404.491 506.356 407.362 437.737 409.105 434.336C410.847 430.934 454.764 429.239 459.093 430.679C463.422 432.12 480.783 500.483 471.204 505.946L419.626 506.356Z" fill="white"/>
</mask>
<g mask="url(#mask9_1595_1270)">
<path opacity="0.2" d="M419.626 506.356C404.491 506.356 407.362 437.737 409.105 434.336C410.847 430.934 454.764 429.239 459.093 430.679C463.422 432.12 480.783 500.483 471.204 505.946L419.626 506.356Z" fill="black" fill-opacity="0.7"/>
</g>
<path d="M419.626 506.356C404.491 506.356 407.362 437.737 409.105 434.336C410.847 430.934 454.764 429.239 459.093 430.679C463.422 432.12 480.783 500.483 471.204 505.946L419.626 506.356Z" stroke="#263238" stroke-linecap="round" stroke-linejoin="round"/>
<path d="M409.102 434.26C414.582 435.445 417.738 457.904 425.114 463.622C432.49 469.339 467.266 468.109 471.201 463.622C475.136 459.134 467.442 433.938 461.852 430.082C456.262 426.227 452.284 429.972 436.556 428.21C413.244 425.584 409.102 434.26 409.102 434.26Z" fill="#F4881E" stroke="#263238" stroke-linecap="round" stroke-linejoin="round"/>
<path d="M449.018 447.169L455.462 452.487C455.55 452.562 455.623 452.655 455.675 452.759C455.728 452.863 455.76 452.976 455.769 453.092C455.778 453.209 455.764 453.326 455.729 453.437C455.693 453.548 455.636 453.65 455.561 453.739L450.541 459.213C450.381 459.374 450.164 459.464 449.938 459.464C449.712 459.464 449.496 459.374 449.336 459.213L442.924 453.174C442.767 453.011 442.68 452.792 442.68 452.565C442.68 452.337 442.767 452.118 442.924 451.955L447.889 447.29C448.03 447.134 448.222 447.035 448.43 447.013C448.638 446.99 448.847 447.046 449.018 447.169Z" fill="#F4881E"/>
<mask id="mask10_1595_1270" style="mask-type:luminance" maskUnits="userSpaceOnUse" x="442" y="447" width="14" height="13">
<path d="M449.018 447.169L455.462 452.487C455.55 452.562 455.623 452.655 455.675 452.759C455.728 452.863 455.76 452.976 455.769 453.092C455.778 453.209 455.764 453.326 455.729 453.437C455.693 453.548 455.636 453.65 455.561 453.739L450.541 459.213C450.381 459.374 450.164 459.464 449.938 459.464C449.712 459.464 449.496 459.374 449.336 459.213L442.924 453.174C442.767 453.011 442.68 452.792 442.68 452.565C442.68 452.337 442.767 452.118 442.924 451.955L447.889 447.29C448.03 447.134 448.222 447.035 448.43 447.013C448.638 446.99 448.847 447.046 449.018 447.169Z" fill="white"/>
</mask>
<g mask="url(#mask10_1595_1270)">
<path opacity="0.2" d="M449.018 447.169L455.462 452.487C455.55 452.562 455.623 452.655 455.675 452.759C455.728 452.863 455.76 452.976 455.769 453.092C455.778 453.209 455.764 453.326 455.729 453.437C455.693 453.548 455.636 453.65 455.561 453.739L450.541 459.213C450.381 459.374 450.164 459.464 449.938 459.464C449.712 459.464 449.496 459.374 449.336 459.213L442.924 453.174C442.767 453.011 442.68 452.792 442.68 452.565C442.68 452.337 442.767 452.118 442.924 451.955L447.889 447.29C448.03 447.134 448.222 447.035 448.43 447.013C448.638 446.99 448.847 447.046 449.018 447.169Z" fill="black" fill-opacity="0.7"/>
</g>
<path d="M449.018 447.169L455.462 452.487C455.55 452.562 455.623 452.655 455.675 452.759C455.728 452.863 455.76 452.976 455.769 453.092C455.778 453.209 455.764 453.326 455.729 453.437C455.693 453.548 455.636 453.65 455.561 453.739L450.541 459.213C450.381 459.374 450.164 459.464 449.938 459.464C449.712 459.464 449.496 459.374 449.336 459.213L442.924 453.174C442.767 453.011 442.68 452.792 442.68 452.565C442.68 452.337 442.767 452.118 442.924 451.955L447.889 447.29C448.03 447.134 448.222 447.035 448.43 447.013C448.638 446.99 448.847 447.046 449.018 447.169Z" stroke="#263238" stroke-linecap="round" stroke-linejoin="round"/>
<path d="M427.768 475.1C427.768 475.1 456.9 477.526 471.203 473.781C473.116 475.304 474.539 477.367 475.291 479.709C476.595 483.654 479.313 497.149 471.203 500.606C463.092 504.063 433.939 503.398 430.048 499.498C426.157 495.598 427.768 475.1 427.768 475.1Z" fill="#F4881E"/>
<mask id="mask11_1595_1270" style="mask-type:luminance" maskUnits="userSpaceOnUse" x="427" y="473" width="50" height="30">
<path d="M427.768 475.1C427.768 475.1 456.9 477.526 471.203 473.781C473.116 475.304 474.539 477.367 475.291 479.709C476.595 483.654 479.313 497.149 471.203 500.606C463.092 504.063 433.939 503.398 430.048 499.498C426.157 495.598 427.768 475.1 427.768 475.1Z" fill="white"/>
</mask>
<g mask="url(#mask11_1595_1270)">
<path opacity="0.4" d="M427.768 475.1C427.768 475.1 456.9 477.526 471.203 473.781C473.116 475.304 474.539 477.367 475.291 479.709C476.595 483.654 479.313 497.149 471.203 500.606C463.092 504.063 433.939 503.398 430.048 499.498C426.157 495.598 427.768 475.1 427.768 475.1Z" fill="black" fill-opacity="0.7"/>
</g>
<path d="M427.768 475.1C427.768 475.1 456.9 477.526 471.203 473.781C473.116 475.304 474.539 477.367 475.291 479.709C476.595 483.654 479.313 497.149 471.203 500.606C463.092 504.063 433.939 503.398 430.048 499.498C426.157 495.598 427.768 475.1 427.768 475.1Z" stroke="#263238" stroke-linecap="round" stroke-linejoin="round"/>
<path d="M427.77 475.1C427.77 475.1 431.189 484.418 432.976 485.847C434.762 487.277 472.607 487.277 476.816 483.82C481.024 480.363 475.259 474.114 471.215 473.781C471.204 473.781 444.692 476.906 427.77 475.1Z" fill="#F4881E" stroke="#263238" stroke-linecap="round" stroke-linejoin="round"/>
<path d="M415.559 473.117C415.559 473.117 416.534 492.696 418.485 497.139C417.037 497.903 415.428 498.302 413.794 498.302C412.161 498.302 410.552 497.903 409.104 497.139C404.172 494.502 404.983 477.638 405.958 477.682C406.933 477.726 415.559 473.117 415.559 473.117Z" fill="#F4881E"/>
<mask id="mask12_1595_1270" style="mask-type:luminance" maskUnits="userSpaceOnUse" x="405" y="473" width="14" height="26">
<path d="M415.559 473.117C415.559 473.117 416.534 492.696 418.485 497.139C417.037 497.903 415.428 498.302 413.794 498.302C412.161 498.302 410.552 497.903 409.104 497.139C404.172 494.502 404.983 477.638 405.958 477.682C406.933 477.726 415.559 473.117 415.559 473.117Z" fill="white"/>
</mask>
<g mask="url(#mask12_1595_1270)">
<path opacity="0.4" d="M415.559 473.117C415.559 473.117 416.534 492.696 418.485 497.139C417.037 497.903 415.428 498.302 413.794 498.302C412.161 498.302 410.552 497.903 409.104 497.139C404.172 494.502 404.983 477.638 405.958 477.682C406.933 477.726 415.559 473.117 415.559 473.117Z" fill="black" fill-opacity="0.7"/>
</g>
<path d="M415.559 473.117C415.559 473.117 416.534 492.696 418.485 497.139C417.037 497.903 415.428 498.302 413.794 498.302C412.161 498.302 410.552 497.903 409.104 497.139C404.172 494.502 404.983 477.638 405.958 477.682C406.933 477.726 415.559 473.117 415.559 473.117Z" stroke="#263238" stroke-linecap="round" stroke-linejoin="round"/>
<path d="M415.558 473.117L408.225 474.602C408.225 474.602 401.233 480.031 404.324 481.837C407.414 483.643 415.382 479.211 415.558 473.117Z" fill="#F4881E" stroke="#263238" stroke-linecap="round" stroke-linejoin="round"/>
</svg>
